<?xml version="1.0" standalone="no"?>
<!DOCTYPE svg PUBLIC "-//W3C//DTD SVG 20010904//EN"
 "http://www.w3.org/TR/2001/REC-SVG-20010904/DTD/svg10.dtd">
<svg version="1.0" xmlns="http://www.w3.org/2000/svg"
 width="900.000000pt" height="512.000000pt" viewBox="0 0 900.000000 512.000000"
 preserveAspectRatio="xMidYMid meet">

<g transform="translate(0.000000,512.000000) scale(0.100000,-0.100000)"
fill="#000000" stroke="none">
<path d="M4335 5109 c-327 -33 -650 -186 -885 -419 -239 -237 -385 -534 -431
-878 -16 -124 -6 -391 21 -547 112 -651 491 -1570 1078 -2615 150 -267 373
-640 382 -640 9 0 202 323 357 600 601 1068 989 2005 1104 2665 27 155 36 425
20 543 -35 243 -113 451 -240 642 -305 457 -845 707 -1406 649z m304 -418 c20
-5 7 -12 -65 -33 -171 -52 -366 -160 -509 -285 -72 -62 -204 -209 -246 -273
l-17 -25 -12 27 c-12 25 -10 32 16 70 16 24 80 95 144 159 160 161 285 242
510 332 84 34 132 42 179 28z m-339 -42 c-8 -5 -33 -19 -55 -31 -133 -69 -344
-247 -436 -368 -59 -77 -66 -76 -76 7 -5 46 -3 50 38 97 126 143 394 297 529
305 13 1 13 0 0 -10z m644 -39 c107 -45 241 -136 329 -223 l72 -72 -35 -3
c-167 -12 -308 -50 -459 -126 -170 -86 -365 -253 -485 -418 -28 -38 -55 -68
-61 -68 -20 0 -175 79 -248 126 -69 45 -200 162 -218 195 -6 13 5 34 43 85
112 151 221 255 367 354 89 59 252 135 336 154 39 9 88 21 110 26 75 17 163 7
249 -30z m436 -360 c11 -6 24 -19 29 -29 10 -17 4 -18 -82 -18 -239 0 -485
-120 -707 -342 -58 -59 -121 -128 -140 -154 -31 -44 -37 -48 -64 -43 -51 11
-51 21 0 93 135 191 371 369 594 447 142 50 321 72 370 46z m-1678 -65 c17
-53 17 -55 -3 -90 -12 -19 -23 -35 -25 -35 -9 0 -34 70 -34 96 0 24 28 84 40
84 3 0 13 -25 22 -55z m1727 -43 c40 -19 66 -63 102 -173 l22 -67 -26 -44
c-57 -98 -203 -195 -352 -233 -86 -22 -257 -36 -355 -30 -108 8 -293 34 -310
45 -18 11 46 95 148 192 188 179 391 296 570 328 64 12 158 4 201 -18z m-1809
-82 c11 -21 20 -46 20 -53 0 -8 -20 -54 -44 -103 -24 -49 -57 -125 -72 -169
-21 -59 -30 -74 -32 -56 -4 24 4 71 34 213 13 63 62 208 70 208 2 0 13 -18 24
-40z m150 -23 c0 -5 -9 -25 -21 -44 -20 -31 -22 -33 -35 -16 -18 24 -18 28 9
68 20 31 23 33 35 18 6 -9 12 -21 12 -26z m210 -212 c41 -32 126 -82 190 -113
63 -31 117 -57 119 -58 2 -2 -7 -19 -19 -39 -26 -43 -29 -42 -150 23 -145 77
-253 158 -330 246 l-30 34 21 37 22 37 51 -56 c28 -30 85 -80 126 -111z m-290
106 c8 -15 1 -38 -31 -108 -59 -126 -88 -205 -114 -308 -17 -66 -25 -85 -30
-71 -9 21 7 115 41 231 22 77 107 275 118 275 3 0 10 -9 16 -19z m245 -237
c44 -31 126 -79 183 -106 56 -27 102 -51 102 -52 0 -2 -18 -41 -40 -88 -54
-116 -106 -275 -125 -382 -8 -49 -17 -91 -20 -94 -2 -2 -30 10 -62 28 -123 70
-212 137 -309 234 l-101 102 8 64 c16 118 94 353 147 443 l16 27 61 -59 c33
-33 96 -85 140 -117z m1644 53 c2 -28 -103 -131 -167 -165 -72 -38 -194 -76
-297 -93 -128 -21 -425 -16 -569 10 -66 12 -122 23 -124 26 -2 2 6 20 18 40
15 24 27 34 39 31 57 -18 228 -38 361 -43 320 -12 517 44 660 187 68 68 76 68
79 7z m2 -166 c-6 -11 -11 -37 -11 -58 0 -139 -113 -414 -211 -514 -78 -79
-241 -145 -433 -176 -190 -30 -501 -7 -671 49 -35 11 -40 17 -43 48 -6 53 17
175 50 275 30 90 109 258 126 269 5 3 54 -4 108 -15 126 -26 471 -37 596 -20
185 26 354 93 444 175 l49 44 3 -29 c2 -15 -2 -37 -7 -48z m-1171 24 c0 -5
-10 -22 -23 -38 -20 -25 -25 -26 -60 -17 l-38 11 22 38 c21 37 21 38 60 27 21
-5 39 -15 39 -21z m-101 -96 c17 -6 31 -13 31 -15 0 -3 -17 -39 -39 -82 -83
-166 -129 -316 -132 -427 -2 -70 -7 -75 -54 -53 -20 9 -25 18 -25 45 0 46 26
171 56 264 32 103 114 279 129 279 1 0 16 -5 34 -11z m-574 -405 c28 -22 77
-59 109 -82 53 -38 57 -42 32 -42 -37 0 -77 22 -169 93 -56 44 -85 74 -103
109 -13 26 -24 51 -24 55 0 4 24 -15 53 -43 28 -28 75 -68 102 -90z m135 -208
c36 -21 92 -52 126 -68 54 -25 62 -33 73 -69 7 -23 10 -43 8 -46 -11 -10 -156
87 -238 160 -86 75 -119 119 -61 81 15 -10 56 -36 92 -58z m127 38 c37 -14 43
-21 43 -46 l0 -28 -49 25 c-53 26 -66 39 -56 55 8 13 12 13 62 -6z m137 -59
c23 -10 38 -24 42 -41 4 -13 5 -27 2 -29 -2 -2 -22 5 -46 15 -33 15 -42 24
-42 45 0 30 -2 29 44 10z m1076 -31 c-71 -85 -416 -143 -689 -115 -196 20
-286 46 -293 86 -4 20 -2 25 9 21 39 -15 221 -47 328 -57 184 -17 415 5 566
55 90 29 95 30 79 10z m-1037 -87 c16 -7 40 -34 58 -66 l31 -54 -29 7 c-42 10
-75 38 -101 84 -22 39 -22 42 -5 42 10 -1 31 -6 46 -13z m242 -63 c96 -18 370
-25 480 -12 l60 7 -46 -19 c-84 -34 -198 -52 -334 -53 -128 -1 -205 12 -205
35 0 6 -11 8 -25 6 -23 -5 -49 14 -70 51 -6 11 -2 13 21 8 16 -4 70 -14 119
-23z"/>
</g>
</svg>
